<?xml version="1.0" standalone="no"?>
<!DOCTYPE svg PUBLIC "-//W3C//DTD SVG 1.1//EN" "http://www.w3.org/Graphics/SVG/1.1/DTD/svg11.dtd" >
<svg xmlns="http://www.w3.org/2000/svg">
<metadata></metadata>
<defs>
<font id="into_the_vortexregular" horiz-adv-x="376" >
<font-face units-per-em="2048" ascent="1942" descent="-106" />
<missing-glyph horiz-adv-x="280" />
<glyph horiz-adv-x="2048" />
<glyph horiz-adv-x="2048" />
<glyph unicode="&#xd;" horiz-adv-x="2048" />
<glyph unicode=" "  horiz-adv-x="280" />
<glyph unicode="&#x09;" horiz-adv-x="280" />
<glyph unicode="&#xa0;" horiz-adv-x="280" />
<glyph unicode="!" horiz-adv-x="161" d="M47 1634q0 15 15.5 15t15.5 -15q0 -108 23 -439.5t10 -512.5q-2 -25 6 -129.5t2.5 -186t-37.5 -110.5q-7 -6 -15 -2t-10 11.5t4 15.5q24 22 28 102.5t-2.5 180t-4.5 122.5q11 177 -12 505.5t-23 442.5zM57 4q-3 12 6 16q0 6 4.5 10.5t10.5 4.5q12 0 15 -10.5t-3 -18.5 q-10 -14 -18 -14q-12 0 -15 12z" />
<glyph unicode="&#x22;" horiz-adv-x="204" d="M29 1456q14 32 14 107q0 23 -1 63.5t-1 54.5q0 15 15.5 15t15.5 -15q0 -14 1 -54.5t1 -63.5q0 -84 -17 -119q-5 -9 -13.5 -9t-13.5 6t-1 15zM141 1450v227q0 15 15.5 15t15.5 -15v-227q0 -15 -15.5 -15t-15.5 15z" />
<glyph unicode="#" horiz-adv-x="454" d="M30 1355.5q-4 7.5 0 14.5t13 6q28 0 78 -4q0 43 1 128.5t1 127.5q0 15 15.5 15t15.5 -15q0 -43 -1 -129t-1 -129q41 -2 129 -10q-2 82 -2 258q0 15 15 15t15 -15q0 -176 2 -258h41q15 0 15 -15.5t-15 -15.5h-39q4 -171 21 -452t22 -390h68q15 0 15 -15t-15 -15h-66 q11 -244 11 -439q0 -15 -15.5 -15t-15.5 15q0 216 -10 441q-24 2 -62 10h-119v-29q0 -76 3.5 -216t3.5 -216q0 -15 -15.5 -15t-15.5 15q0 76 -3 216t-3 216v29h-56q-15 0 -15 15.5t15 15.5h56q0 279 4 841q-11 1 -37 3.5t-41 3.5q-9 0 -13 7.5zM147 500h121l2 -2 q9 -1 28 -4.5t28 -4.5q-3 56 -20.5 358t-22.5 482q-94 8 -131 10q-5 -703 -5 -839z" />
<glyph unicode="$" horiz-adv-x="393" d="M27 330v4v147q0 15 15 15t15 -15v-145q6 -27 8 -70.5t3.5 -79t8.5 -71t27 -60t54 -32.5q0 361 -8 1017q-51 102 -77 179.5t-26 171.5q0 111 9 152q21 91 91 97v101q-1 9 6.5 13t15.5 0t9 -13v-101q77 -6 123.5 -62.5t46.5 -150.5q0 -15 -15.5 -15t-15.5 15q0 81 -38 129 t-101 54q0 -389 2 -563q18 -34 53 -101q33 -66 55 -142.5t33.5 -139.5t17 -155t6.5 -145.5t1 -154.5v-47l-2 -2q0 -4 -4 -4q-15 -168 -145 -168l-7 2l2 -94q0 -15 -15 -15t-15 15l-2 96q-42 7 -67 31.5t-34.5 63t-13 76.5t-6.5 87.5t-10 79.5zM77 1459.5q0 -14.5 0.5 -38 t0.5 -30.5q0 -130 72 -281q-3 231 -3 500q-17 -2 -30 -12t-20.5 -26.5t-12 -33t-6 -40.5t-1.5 -38.5zM182 979q6 -915 6 -959h7q63 0 89.5 47t28.5 134v2q-4 4 2 4v2q0 108 -0.5 153t-6 141t-16 154.5t-32.5 135.5t-55 141q-4 7 -11.5 22.5t-11.5 22.5z" />
<glyph unicode="%" horiz-adv-x="542" d="M27 1440q0 73 48 127.5t120 54.5q14 0 14 -14q45 -6 59.5 -32.5t14.5 -86.5q0 -41 -7 -69.5t-34 -51t-74 -22.5q-38 0 -89.5 32.5t-51.5 61.5zM57 1440q0 -11 41 -37.5t70 -26.5q50 0 67 27.5t17 85.5q0 56 -10 71.5t-47 18.5q-15 0 -15 10q-54 -6 -88.5 -49.5 t-34.5 -99.5zM199 -14q14 87 28.5 243t24.5 232q50 383 72 648t22 591q0 15 15.5 15t15.5 -15q0 -324 -22.5 -588t-73.5 -655q-10 -74 -25 -230.5t-29 -244.5q-1 -9 -9 -12t-14.5 2t-4.5 14zM322 78q0 70 22 102q-11 11 -2 23q4 5 13 16.5t13.5 16t15 9.5t24.5 5 q41 0 76.5 -30t35.5 -70q0 -127 -106 -127h-7q-27 0 -41.5 1.5t-29 14.5t-14.5 39zM352 78q0 -9 3.5 -15t12 -8t14 -2.5t17.5 0t15 0.5q46 0 60.5 26t14.5 71q0 26 -25 47.5t-56 21.5q-7 0 -19 -8q5 1 9 -1t6 -6t2 -8.5t-3 -8.5t-8 -5q-43 -13 -43 -104z" />
<glyph unicode="&#x26;" horiz-adv-x="548" d="M23 184q0 155 38 308t109 352q-82 274 -82 536q0 258 150 258q53 0 94 -43t59.5 -100.5t18.5 -112.5q0 -65 -21 -129t-47.5 -107.5t-60 -104.5t-50.5 -111l-30 -88q19 -66 49 -148q21 -59 68 -177t69 -181q5 62 5 135.5t-2.5 153.5t-2.5 110h-61q-15 0 -15 15.5t15 15.5 h172q15 0 15 -15.5t-15 -15.5h-80q0 -27 3.5 -129t1.5 -184t-13 -152q40 -111 77 -258q3 -9 -3.5 -15t-14.5 -4t-10 11q-24 96 -62 205q-20 -82 -59 -129q-8 -10 -24 -34t-26.5 -37.5t-30.5 -25.5t-44 -12q-102 0 -146 49.5t-44 163.5zM53 184q0 -103 35.5 -141.5 t124.5 -38.5q22 0 39 14.5t36.5 45t24.5 36.5q47 58 66 166q-22 61 -92 244.5t-103 284.5q-62 -175 -96.5 -321t-34.5 -290zM119 1380q0 -252 67 -489l17 47q17 49 50 110t59 105t46.5 106t20.5 123q0 83 -40.5 154.5t-100.5 71.5q-47 0 -74.5 -32.5t-36 -79.5t-8.5 -116z " />
<glyph unicode="'" horiz-adv-x="139" d="M57 1415v309q0 15 15.5 15t15.5 -15v-309q0 -15 -15.5 -15t-15.5 15z" />
<glyph unicode="(" horiz-adv-x="245" d="M53 945.5q1 55.5 5 142.5t15.5 160t30.5 141q17 60 80.5 158t81.5 151q3 9 11.5 10.5t14.5 -4t3 -14.5q-18 -55 -81.5 -153.5t-80.5 -156.5q-31 -109 -40 -230.5t-6.5 -303t1.5 -234.5l-2 -2v-4q2 -227 47.5 -401.5t147.5 -313.5q6 -8 1.5 -15t-12 -7.5t-14.5 6.5 q-107 146 -154 332t-47 426v2v4q0 38 -1.5 144.5t-0.5 162z" />
<glyph unicode=")" horiz-adv-x="245" d="M-29 1690q-3 9 3.5 14.5t15.5 4t12 -10.5q18 -53 81.5 -151t80.5 -158q19 -68 30.5 -139t15 -163t4.5 -139.5t-1 -165t-2 -143.5q2 0 2 -4v-2q0 -240 -47 -426t-154 -332q-6 -8 -14.5 -6.5t-11.5 8t2 14.5q100 139 146 314t48 401q0 1 -1 2t-1 2v2q0 32 2 181.5t0.5 214 t-13.5 176t-36 196.5q-16 58 -80 157t-82 153z" />
<glyph unicode="*" horiz-adv-x="339" d="M48 1922q0 15 15 15h78q-52 70 -84 82q-9 4 -9 12.5t7 14.5t15 2q35 -15 86 -76v105q0 15 15 15t15 -15v-138q45 70 45 123q0 15 15.5 15t15.5 -15q0 -57 -39 -120q8 0 25 1t26 1q15 0 15 -15.5t-15 -15.5q-13 0 -36.5 -1t-34.5 -1l-2 -4q12 -16 32 -45.5t34.5 -50 t27.5 -35.5q9 -12 -2.5 -22t-22.5 1q-18 21 -84 121v-145q0 -15 -15 -15t-15 15v118q-57 -69 -72 -110q-6 -14 -20.5 -8.5t-8.5 20.5q6 14 14 28t20 31t19.5 27t24.5 31t23 28v13q-31 -2 -93 -2q-15 0 -15 15z" />
<glyph unicode="," horiz-adv-x="143" d="M-18.5 -325q-0.5 8 6.5 14q27 19 43 55t20.5 85.5t5 89.5t-2.5 93.5t-3 71.5q0 15 15.5 15t15.5 -15q0 -19 3 -78.5t2 -99.5t-6.5 -92t-25 -90t-51.5 -60q-8 -6 -15 -1.5t-7.5 12.5z" />
<glyph unicode="." horiz-adv-x="143" d="M63 -2v10q2 8 9 11.5t14 0.5q13 -5 8 -20v-2q0 -1 1 -3t1 -3q0 -15 -15 -15t-15 15l-3 2v4z" />
<glyph unicode="/" horiz-adv-x="473" d="M25 -68q12 60 51.5 201.5t52.5 206.5q50 250 128.5 770t96.5 625q5 34 29.5 105t28.5 112q0 14 13 13q14 0 15 -13v-4q-3 -41 -27.5 -113t-29.5 -104q-24 -145 -66.5 -433t-81.5 -530t-77 -432q-13 -67 -53 -208t-52 -200q-2 -9 -9.5 -11.5t-14 2t-4.5 13.5z" />
<glyph unicode="0" horiz-adv-x="555" d="M37 1263q0 42 8 138q29 241 234 241q177 0 206 -421q19 -232 19 -609q0 -68 2 -187t2 -185v-11l2 -14q0 -1 -1 -3t-1 -3v-2q0 -17 1 -41l1 -23q0 -72 -42.5 -115.5t-109.5 -43.5q-44 0 -81.5 12t-64 29.5t-49.5 49t-37 58t-28.5 69t-21.5 70t-18 74t-17 68.5v4v557 q0 9 6 12q-1 41 -5.5 137.5t-4.5 138.5zM68 1306.5q0 -40.5 0.5 -59l1.5 -55.5q1 -28 4.5 -99.5t3.5 -105.5q0 -6 -6 -12v-555q5 -20 15 -62.5t16 -69t19 -66t25.5 -65t33.5 -55t45 -46.5t58 -28.5t74 -11.5q56 0 89 33.5t32 93.5l-2 64v31v14v4v6v2q-4 242 -4 348 q0 6 0.5 100.5t0 129.5t-2 126t-5.5 143t-10.5 124.5t-17 127.5t-24.5 99q-46 150 -135 150q-37 0 -67 -10t-51.5 -24.5t-38 -41t-26.5 -48.5t-16 -58t-9 -59.5t-3 -64zM477 238v8v6v-14z" />
<glyph unicode="1" horiz-adv-x="411" d="M63 1419q13 53 53.5 114.5t82.5 100.5q9 8 17.5 4t8.5 -16q0 -319 18 -809t19 -795h107q15 0 15 -16t-15 -16q-56 0 -146 3.5t-121 4.5q-9 0 -13 7.5t0 15t13 6.5q23 0 65 -1.5t62 -1.5q0 306 -17 785.5t-17 779.5q-82 -90 -103 -174q-2 -9 -10 -10.5t-14.5 4t-4.5 14.5z " />
<glyph unicode="2" horiz-adv-x="446" d="M35 1350q5 123 68 199.5t169 76.5q41 0 68 -14.5t40 -35t18 -55.5t4.5 -61t-3 -68.5t-2.5 -62.5q0 -177 -28 -358t-80 -410q-1 -3 -9 -39.5t-9.5 -42t-9.5 -38.5t-10.5 -42.5t-10.5 -38t-12.5 -41t-13 -37.5t-15.5 -41t-16 -36.5t-19 -38.5q-17 -25 -43 -74.5t-23 -64.5 q4 -2 12 -1t21 4t16 3q16 0 40 3t38 3h2l179 -6q15 0 15 -14.5t-15 -14.5l-179 4q-43 -6 -80 -6q-6 0 -21.5 -3.5t-25.5 -5t-20 4.5t-12 22q-2 14 6.5 39t18 43.5t25.5 47.5t17 32q10 18 19 37t16 35.5t15 39t13.5 37t12.5 40.5t10.5 38t10.5 41t9.5 38.5t9.5 41.5t9 39 q51 232 79 409.5t28 350.5q0 19 3 54t5 60t-1 55.5t-12.5 50t-32 33t-57.5 13.5q-93 0 -149.5 -67t-59.5 -178q0 -15 -14 -15t-14 15z" />
<glyph unicode="3" horiz-adv-x="423" d="M47 1444q0 80 51 139t131 59q156 0 166 -233q0 -1 1 -3t1 -3v-31q0 -1 -1 -3t-1 -3q-2 -62 -15.5 -124.5t-39.5 -126t-73 -111.5t-109 -66q19 -19 51 -44t56.5 -49t45.5 -57q17 -27 29.5 -58t20 -70.5t12.5 -69t6.5 -78.5t2 -71.5t0 -76t-0.5 -65.5q0 -17 2.5 -57 t3.5 -67.5t-4 -64t-17 -59.5t-38.5 -39t-65.5 -16q-46 0 -81 16.5t-56.5 47.5t-36 65.5t-21 80.5t-8.5 81t-2 78q0 15 15.5 15t15.5 -15q0 -54 3 -96.5t14 -89.5t29 -78t51 -51.5t77 -20.5q36 0 57.5 16.5t27.5 41.5t8 55t-1 57q-4 66 -4 100q0 18 1 73t0.5 85.5t-3.5 82.5 t-9 87t-19.5 75.5t-32.5 69.5q-26 39 -89.5 91.5t-82.5 72.5q-6 7 -3 15.5t13 9.5q62 12 109.5 55.5t75 105.5t41 129.5t14.5 137.5q0 223 -136 223q-66 0 -108.5 -49.5t-42.5 -118.5q0 -15 -15.5 -15t-15.5 15z" />
<glyph unicode="4" horiz-adv-x="399" d="M16 1624q-3 9 3.5 15t15 4t10.5 -11q22 -87 36.5 -205t13 -252.5t-28.5 -220.5q40 0 114 -2t115 -2v672q0 15 15.5 15t15.5 -15v-672h26q9 -1 13 -9t0 -15t-13 -6h-26v-336q0 -48 7.5 -176t5.5 -227.5t-20 -170.5q-3 -9 -11 -11t-14 4t-3 15q18 68 19 167t-7 224.5 t-8 174.5v336q-44 0 -125.5 3t-126.5 3q-9 0 -13 5.5t-1 14.5q31 78 34.5 212.5t-10.5 254.5t-37 211z" />
<glyph unicode="5" horiz-adv-x="442" d="M35 1604q0 17 12.5 27t34 12.5t40 2.5t41 -2t27.5 -2q122 0 179 -8q9 -1 12 -9t-2 -14.5t-14 -4.5q-43 6 -175 6q-3 0 -19 1t-32 1.5t-33.5 0t-28.5 -3t-11 -7.5q0 -68 6 -201t6 -205q61 -2 111 -21.5t85 -51t61 -77.5t41.5 -94.5t25 -110t12.5 -115.5t3.5 -119.5 t-1.5 -114.5t-4 -106.5t-2 -90.5q0 -35 -0.5 -52.5t-3 -56t-8 -61t-17 -53.5t-27.5 -48t-41.5 -29.5t-58.5 -12.5t-60.5 11t-47.5 27.5t-35.5 44t-25.5 53t-17.5 61.5t-11 63t-5 64.5t-2 58t-0.5 51.5q0 15 15.5 15t15.5 -15q0 -183 27 -270q42 -132 147 -132q26 0 46.5 11 t33.5 25.5t22 41t13.5 46t7 52.5t2.5 48.5v45.5v11q0 45 4 173t1 216.5t-17 171.5q-26 147 -96.5 229t-207.5 82q-14 0 -14 15q0 74 -7 212t-7 208z" />
<glyph unicode="6" horiz-adv-x="464" d="M43 307q0 25 2 73.5t2 70.5v61q0 5 -1.5 100t1.5 97q7 113 12 415q2 30 0 71t0.5 90t5.5 98t16 95t32 81.5t53.5 57t79.5 21.5q42 0 69 -5t52.5 -19t38 -44t12.5 -77q0 -15 -15.5 -15t-15.5 15q0 71 -32 93t-109 22q-39 0 -68 -20t-45.5 -57t-27 -76t-14 -93t-4 -90.5 t0 -85.5t0.5 -62q-5 -302 -12 -415v-33q23 35 56 52t87 17q71 0 118 -19.5t67.5 -52.5t30.5 -77t7.5 -94t-2.5 -103l-2 -2v-4q-1 -41 -2 -68t-5.5 -71.5t-12 -74t-22.5 -64.5t-35.5 -55.5t-52.5 -35t-72 -14.5q-51 0 -88 19.5t-57 47t-31 71t-14 78.5t-3 81zM74 307 q0 -43 1.5 -71.5t10.5 -69t25.5 -65t48 -42.5t76.5 -18q36 0 64 14.5t46 35t30.5 56t18.5 63t9 71.5t3.5 66t0.5 62v15v2q0 2 2 4q0 155 -21 203q-33 82 -170 82q-59 0 -87.5 -24t-55.5 -79q0 -16 1 -49t1 -51v-61q0 -13 -1 -41t-1 -41q0 -10 -1 -31t-1 -31zM76 369 q0 13 1 41t1 41v-76q0 -1 -1 -3t-1 -3z" />
<glyph unicode="7" horiz-adv-x="501" d="M32 1608.5q0 15.5 15 15.5q220 0 283 4l2 2h125q7 0 11.5 -5t2.5 -13q-9 -73 -42 -181.5t-42 -144.5q-69 -290 -125 -631.5t-82 -638.5q0 -14 -13 -13q-14 0 -15 13v4q26 298 81.5 640t124.5 634q9 37 40 137t40 168h-104q-43 -7 -89 -8.5t-110.5 0.5t-87.5 2 q-15 0 -15 15.5z" />
<glyph unicode="8" horiz-adv-x="569" d="M72 1339q0 39 9.5 84t28.5 91t54 77.5t80 34.5q8 2 26 2q29 0 41 8q8 5 15.5 1.5t9.5 -11.5q69 -8 100 -44.5t31 -117.5q0 -61 -25.5 -127.5t-58.5 -116t-70.5 -114t-54.5 -113.5q27 -35 51 -69q114 -155 177 -350.5t63 -397.5q0 -61 -19 -102t-55.5 -60.5t-76.5 -26.5 t-97 -7q-29 0 -53.5 7t-42 18t-31 30t-22 36t-14.5 43.5t-9 46t-4 49.5t-1 48t0.5 47.5t0.5 42.5q0 43 2.5 86.5t9 93t11 83.5t16 91.5l16.5 82.5t19 91.5t18 84.5q0 6 4 18l-8 8q-63 63 -102 159.5t-39 192.5zM102 1339q0 -132 136 -315q18 44 54.5 106.5t66.5 109.5 t53.5 108.5t23.5 115.5q0 73 -25.5 100.5t-91.5 32.5q-7 0 -12 5q-15 -5 -37 -5q-33 0 -47 -6q-57 -23 -89 -97t-32 -155zM155.5 231q0.5 -20 3.5 -53t9 -59q27 -107 133 -107q110 0 163.5 33t53.5 131q0 209 -70.5 416t-201.5 360q-3 -12 -16 -73.5t-16.5 -78.5t-14.5 -71 t-14.5 -78.5t-11 -72t-10 -79t-5 -72.5t-2.5 -79q0 -12 -0.5 -54.5t0 -62.5z" />
<glyph unicode="9" horiz-adv-x="464" d="M28.5 1127q0.5 33 0.5 68v38v2q0 2 2 2q1 32 0 67.5t3.5 73t11 73t21.5 67t35 55.5t51.5 38t71.5 15q51 1 88.5 -18t57.5 -47t32 -71.5t15 -78.5t4 -82v-141l2 -62q4 -159 2 -198q-6 -125 -6 -416q0 -16 1 -60t2 -77.5t-1.5 -83t-8 -87t-19 -78t-32.5 -67t-49.5 -44 t-70.5 -17.5q-42 -1 -69 3t-53 18t-38.5 43.5t-13.5 76.5q0 15 15 15t15 -15q1 -70 33.5 -91t108.5 -19q34 0 60.5 17t43 42.5t27 64t15 75t6 82t1 78t-2 71t-1.5 53.5q0 293 6 418q0 21 2 31q-50 -70 -143 -70q-48 -1 -84.5 7t-60 23.5t-40 37t-24.5 48t-12.5 57t-4 63.5z M59 1202q0 -154 23 -203q33 -80 172 -77q59 0 88 24.5t53 79.5q0 63 -2 98l-2 62v84v59q-1 31 -1.5 51t-4.5 51t-10.5 51.5t-18.5 44t-29 37t-43 22.5t-59 9q-40 -1 -70 -19t-47 -47t-28.5 -66t-14 -76.5t-4.5 -78.5t0 -72v-9.5v-9v-9.5v-2zM389 1262q0 2 1 4.5t1 3.5v-84z " />
<glyph unicode="?" horiz-adv-x="473" d="M45 1425q0 48 2 80.5t8 75t20 70.5t36.5 54t59 39t85.5 13q42 0 73 -11.5t48.5 -31t29 -46t14.5 -56.5t5 -62t0 -63v-31q0 -62 -24 -123.5t-54.5 -104t-71.5 -103t-63 -109.5q-12 -25 -13 -63.5t4 -88t5 -67.5q0 -119 -4 -307t-4 -300q0 -15 -15.5 -15t-15.5 15 q0 112 4 300t4 307q0 20 -5 71.5t-3.5 91t14.5 68.5q21 47 61 106.5t71 102t55 101.5t24 118q0 5 0.5 35t0 43.5t-1.5 37.5t-4.5 42t-8.5 33q-24 79 -125 79q-41 0 -71.5 -10t-50 -31.5t-31.5 -46t-17.5 -62.5t-7.5 -70.5t-2 -80.5q0 -15 -15.5 -15t-15.5 15zM170 27v36 q0 15 15.5 15t15.5 -15v-36q0 -15 -15.5 -15t-15.5 15z" />
<glyph unicode="@" horiz-adv-x="720" d="M67.5 262q0.5 32 0.5 65v35q0 561 36 961q4 44 7.5 73.5t12 73t19.5 73t31 62.5t45.5 53t63.5 33t84 13q68 0 121 -25.5t87 -62.5t58 -100.5t36 -115.5t18.5 -133t7.5 -127.5t1 -123.5q0 -9 1 -45.5t1 -63t-2 -67t-9.5 -69.5t-19.5 -57t-33 -42.5t-50 -14.5 q-28 0 -50 14.5t-35 43t-21.5 54.5t-12 66t-4.5 59t-2 50q-3 -23 -7 -50.5t-15 -75t-23.5 -83t-32.5 -63t-43 -27.5q-33 0 -57 8.5t-38.5 28t-23 36.5t-12 48t-4 48.5t-0.5 50.5v12q0 44 4 92t17.5 111t35.5 109.5t62.5 77t93.5 25.5q9 -1 12 -8.5t-2 -14t-14 -5.5 q-45 4 -79 -26t-52.5 -74.5t-30 -103.5t-14.5 -102t-3 -81v-25v-27.5t0.5 -26.5t2.5 -27.5t5.5 -24.5t9 -23t13.5 -18.5t18 -15.5t24.5 -9t31.5 -4q19 0 40 54t28 87q43 201 43 436q0 15 12.5 17t15.5 -13q9 -36 11.5 -98.5t2.5 -140t1 -105.5q9 -225 92 -225q22 0 38 14.5 t24.5 40.5t14 54t6.5 64t1 62t-1 56t-1 37q0 57 -0.5 97.5t-4 99t-9 100.5t-16 93t-25.5 87t-38 72t-51.5 58t-68 36t-86.5 14q-41 0 -73.5 -11.5t-55 -29t-40.5 -47.5t-28 -56t-18 -67.5t-11.5 -69.5t-7.5 -73q-35 -383 -35 -957v-34.5v-31t0.5 -25t1 -24.5t2.5 -21.5 t4 -24.5t5.5 -24.5t8.5 -30t11 -33.5q54 -166 213 -166q50 0 91 16t69 40t49 61.5t33 73t20.5 83.5t11.5 84t5 82q2 76 2 96q0 15 15 15t15 -15v-191q-9 -206 -94 -293q-70 -72 -199 -83q-1 0 -3 -1t-3 -1h-24q-1 0 -3 1t-3 1q-42 2 -77 11t-60.5 24t-45.5 34.5t-32 43.5 t-21.5 51.5t-13 57t-6.5 61t-2.5 63.5z" />
<glyph unicode="A" d="M23 31q0 75 6 148t17.5 172.5t16.5 148.5q2 26 9 83.5t10.5 102.5t3.5 86v2q-9 0 -13 7.5t0 15t13 6.5h4q51 581 92 831q3 14 15 14h2q14 -1 14 -16q0 -135 11 -296t20.5 -255t31.5 -286q6 -5 7.5 -13.5t-4.5 -13.5q33 -319 40 -530q1 -37 19 -109.5t18 -110.5 q0 -15 -15 -15t-15 15q0 38 -17 110.5t-18 109.5q-6 166 -43 528l-131 6q-3 -42 -7 -88.5t-9.5 -101.5t-8.5 -84q-4 -46 -16 -147.5t-17.5 -173t-5.5 -146.5q0 -15 -15 -15t-15 15zM121 803l123 -6l-14 126t-14.5 138t-11.5 122.5t-11.5 139.5t-6.5 129q-27 -195 -65 -649z " />
<glyph unicode="B" horiz-adv-x="395" d="M40 1651.5q0 8.5 6 14.5q3 3 8 3q3 0 7 -2q112 -58 171 -157t59 -224q0 -66 -37 -154.5t-92 -113.5q110 -107 154 -239.5t44 -307.5q0 -61 -15 -133t-42.5 -143t-74.5 -124t-103 -67v-2q0 -15 -15.5 -15t-15.5 15q0 126 7.5 373.5t7.5 449t-15 369.5q-5 55 -15 140 t-16 154.5t-6 145.5l-8 4q-9 5 -9 13.5zM88 1616q1 -72 6 -136.5t15 -149t14 -132.5q8 -107 10 -158q31 6 61.5 49.5t48 98.5t17.5 98q0 104 -44 189.5t-128 140.5zM125 37q61 19 109.5 95.5t72 167t23.5 171.5q0 171 -44 299t-151 229q3 -78 3 -184q0 -141 -5 -337 q-8 -340 -8 -441z" />
<glyph unicode="C" horiz-adv-x="483" d="M35 365q0 127 9 364t9 401q0 13 -0.5 50t-0.5 61t1.5 65t4.5 69.5t9.5 66t16.5 64t25 54t35 44t47.5 27.5t60.5 11q79 0 130.5 -57t51.5 -145q0 -15 -15.5 -15t-15.5 15q0 77 -43 124.5t-108 47.5q-36 0 -64.5 -16.5t-46 -40t-30 -62.5t-18 -72.5t-8.5 -82t-3 -78 t1 -73.5t1 -57q0 -164 -9 -401t-9 -364q0 -67 8 -122.5t27 -106t55.5 -79t87.5 -28.5q182 0 182 305q0 15 15.5 15t15.5 -15q0 -338 -213 -338q-63 0 -106.5 34.5t-64.5 93t-29.5 116.5t-8.5 125z" />
<glyph unicode="D" d="M36 1650q5 6 10 6q4 0 9 -3q46 -34 85 -81t66.5 -94.5t49.5 -114t36 -118t23.5 -129.5t14.5 -126.5t7.5 -131t2.5 -120.5v-116v-36q0 -74 -12.5 -161.5t-38 -178t-71.5 -162t-105 -96.5q-4 -2 -7 -2t-6 2q-3 -1 -6 -1q-4 0 -8 2q-6 4 -6 13q0 133 -1 251.5t-3.5 243.5 t-4.5 207.5t-7 223.5t-7.5 207t-9.5 243.5t-10 251.5q-5 5 -5 10t4 10zM68 1604q17 -417 23 -572t12.5 -437.5t5.5 -574.5q65 33 112.5 137.5t67.5 216.5t20 212q0 290 -11 417q-38 435 -230 601z" />
<glyph unicode="E" horiz-adv-x="352" d="M32 1226v23q0 83 4 187q4 118 3 174q-6 5 -5 13t7 13q5 6 13 7h3q7 0 11 -5h118l2 -2q43 -2 117 -2q15 0 15 -15t-15 -15q-91 0 -121 4h-114q0 -60 -4 -174t-4 -205.5t8 -167.5q8 -63 10 -92h160q15 0 15 -15.5t-15 -15.5h-158q8 -175 8 -279v-23q-1 -108 -6.5 -307 t-5.5 -304h209q15 0 15 -16.5t-15 -16.5h-226q-6 0 -10 5t-4 11q0 108 7 330q6 183 6 333v63q-2 173 -19 323q-9 77 -9 169z" />
<glyph unicode="F" horiz-adv-x="311" d="M35 8q0 261 3.5 643.5t4.5 485.5q-7 10 0 20q1 75 2 232t2 239q-9 6 -6.5 17.5t14.5 11.5h226q15 0 15 -15.5t-15 -15.5h-205q0 -324 -2 -465q21 -1 61 -7.5t68 -6.5q15 0 15 -15.5t-15 -15.5q-28 0 -68 6.5t-61 7.5q-8 -730 -8 -1122q0 -15 -15.5 -15t-15.5 15z" />
<glyph unicode="G" horiz-adv-x="440" d="M36 460q2 63 6.5 155t4.5 126v2q0 5 2 5q0 87 3 269.5t3 264.5q0 19 -2.5 57.5t-2.5 68.5q-1 9 -1 20q0 22 1 47q1 38 10 66t24.5 53.5t44 39t68.5 13.5q63 0 119.5 -42.5t56.5 -107.5q0 -15 -15.5 -15t-15.5 15q0 49 -45.5 84t-99.5 35q-44 0 -71.5 -22.5t-35 -56 t-10.5 -71.5q-2 -18 -2 -35q0 -19 2 -36q0 -5 3 -48.5t3 -64.5q0 -297 -6 -567l-2 -2q0 -4 -2 -4q0 -26 -4.5 -122t-4.5 -142t5 -144q20 -272 172 -272q29 0 52 10t37.5 27.5t25 41t15 49.5t7.5 53.5t2 53.5t0 49v13v10q0 78 -5 225t-5 230q-74 0 -103 -7q-9 -3 -15 3.5 t-4 15t11 10.5q14 4 32 6t29 2.5t34 0t30 -0.5q6 0 11 -5t5 -11q0 -86 5.5 -237.5t5.5 -231.5v-15q0 -37 -0.5 -57.5t-3.5 -60t-9 -63t-18.5 -54.5t-30 -48t-45.5 -29.5t-63 -12.5q-180 0 -203 301q-5 79 -5 136v27z" />
<glyph unicode="H" horiz-adv-x="436" d="M34 875.5q0 15.5 15 15.5h2q-4 442 -4 731q0 15 15.5 15t15.5 -15q0 -289 4 -731h104l2 -2q143 -10 179 -10q-7 401 -7 755q0 15 15.5 15t15.5 -15q0 -454 8 -762q7 -10 0 -20q11 -709 11 -844q0 -15 -15.5 -15t-15.5 15q0 195 -10 840q-114 0 -185 12h-102 q6 -786 6 -852q0 -15 -15.5 -15t-15.5 15q0 66 -6 852h-2q-15 0 -15 15.5z" />
<glyph unicode="I" horiz-adv-x="174" d="M63 1634q0 15 14.5 15t14.5 -15q8 -185 12.5 -340.5t6.5 -341.5t2 -274q0 -44 1 -130q0 -86 -1 -212v-340q0 -15 -15.5 -15t-15.5 15q0 130 1 420q1 193 1 313v102q0 126 -5.5 351t-15.5 452z" />
<glyph unicode="J" horiz-adv-x="399" d="M39 256q0 15 15.5 15t15.5 -15q0 -94 33.5 -167t93.5 -73q27 0 48.5 9.5t34.5 22t22.5 36t14 40.5t7 47.5t2.5 44v42.5v16v41q0 217 -9.5 651t-9.5 656q0 15 15.5 15t15.5 -15q0 -222 9 -656t9 -651v-41v-12q0 -31 -0.5 -51.5t-4 -52.5t-9 -53.5t-17.5 -46.5t-28.5 -39.5 t-42 -24.5t-57.5 -10q-42 0 -74.5 27.5t-49.5 70.5t-25.5 87t-8.5 87z" />
<glyph unicode="K" horiz-adv-x="335" d="M38 153q-1 27 -1 59q-1 52 1 114q2 100 3 145v1151q0 15 15.5 15t15.5 -15v-733q11 33 38 93.5t37 88.5q65 183 101 565q0 9 8 12q3 1 6 1q4 0 8 -3q6 -5 6 -14q-38 -398 -100 -573q-10 -28 -37 -86t-42 -104t-15 -91q0 -52 16.5 -105.5t52.5 -130t44 -96.5 q118 -302 118 -434q-1 -6 -5 -10q-6 -5 -13.5 -2t-9.5 12q-31 203 -119 422q-9 24 -45 101.5t-49 121.5v-186q0 -49 -4 -145q-3 -74 -2 -135v-34q1 -74 10 -147q1 -9 -6 -14q-4 -3 -9 -3q-3 0 -5 1q-8 3 -9 12q-7 74 -9 147z" />
<glyph unicode="L" horiz-adv-x="411" d="M47 1618q0 15 15.5 15t15.5 -15q0 -310 2 -793t2 -790h283q15 0 15 -15.5t-15 -15.5h-297q-15 0 -15 14q0 313 -3 800.5t-3 799.5z" />
<glyph unicode="M" horiz-adv-x="462" d="M39 18q0 470 31 1129q3 58 19.5 237t16.5 271q0 15 12 17q2 0 3 1q9 0 14 -12q33 -87 45 -201q9 -88 9 -165q-1 -23 -1 -45q-2 -51 -1 -109q0 -50 1 -106q3 -120 19 -206q16 185 98 461q15 51 15 155v7q0 5 -1 9q0 102 11 157q2 10 8.5 13t12.5 -1.5t7 -15.5 q2 -58 18 -178t19 -168q39 -568 39 -1256q0 -15 -15.5 -15t-15.5 15q0 693 -36 1256q-5 64 -19 157q0 -97 -14 -143q-101 -344 -101 -555q0 -15 -12.5 -17t-17.5 13q-31 89 -41 203q-7 80 -8 151q0 31 2 59q2 50 2 106q0 50 -2 106q-4 118 -23 208q-4 -63 -18 -202t-17 -207 q-28 -529 -28 -1129q0 -15 -15.5 -15t-15.5 15z" />
<glyph unicode="N" horiz-adv-x="395" d="M49 684v12v58l2 26q12 148 13.5 426t11.5 410q2 15 13.5 15t14.5 -15q24 -141 51.5 -421t49.5 -413q15 -94 56.5 -265t57.5 -269q2 -11 6.5 -42t6.5 -48q1 44 3 169.5t2.5 187.5t0.5 162.5t-3 184.5t-9 164q-2 32 -2 73q0 50 3 114q6 117 6 220.5t-20 180.5q-3 9 3 15 q4 4 10 5q2 0 4 -1q8 -2 12 -11q21 -79 21 -180q1 -100 -7 -224q-4 -65 -4 -117q0 -40 2 -71q12 -147 14 -310q1 -54 1 -115q0 -123 -3 -271q-4 -222 -4 -316q0 -15 -12 -17.5t-18 11.5q-13 33 -20 71t-12.5 88.5t-8.5 72.5q-15 103 -57.5 275t-57.5 259q-21 125 -44.5 365 t-35.5 332q-14 -249 -14 -650v-10q2 -20 2 -53v-119v-149q0 -46 -4 -156q-2 -70 -2 -128q0 -32 1 -62q2 -80 13 -156q2 -9 -4 -14q-4 -3 -9 -3q-3 0 -6 1q-8 3 -10 12q-11 74 -13 154q-1 36 -2 80q0 52 2 116q3 116 3 156v149v37q-4 0 -4 4z" />
<glyph unicode="O" horiz-adv-x="512" d="M48 1205q-1 18 -1 39q0 28 1 60q2 58 7.5 103.5t19.5 93t35 79t56 51.5t80 20q49 0 86 -29t57.5 -71t33 -98t16 -100t3.5 -87q0 -80 11 -218t12 -202q2 -100 2 -322v-24q0 -23 3.5 -71t6 -89.5t2.5 -93.5t-9.5 -92.5t-27.5 -76.5t-53 -55.5t-84 -19.5q-30 0 -55 6.5 t-42 15.5t-31.5 27t-22.5 32t-16 40t-12 42t-10 47t-10 46q-25 103 -37.5 254.5t-14 251t-1.5 270.5v4v2q0 22 -1.5 72.5t-3.5 92.5zM78 1286v-41v-53q2 -40 4 -86t2 -66l-2 -2q0 -1 1 -2t1 -2v-175t3.5 -162.5t10.5 -189t22.5 -160.5t37.5 -171q12 -40 19.5 -60t23.5 -42.5 t41 -31.5t63 -9q73 1 108 57q33 53 33 119v7q-2 70 -3 134q-1 17 -1 25q-6 3 -6 12v59v54v24q0 35 0.5 102.5t0.5 121.5t-1 98q-1 64 -12.5 202.5t-11.5 217.5q0 49 -6 99.5t-21.5 113t-51.5 102t-87 39.5q-40 0 -70 -19.5t-48 -50.5t-29.5 -76.5t-15.5 -89.5t-5 -98z" />
<glyph unicode="P" horiz-adv-x="292" d="M22 371q-1 82 -1 179q0 130 2 287q4 275 4 355q0 73 9 208.5t9 205.5q-7 6 -5.5 14.5t9.5 11.5q4 4 11 4h5q10 -2 11 -12q45 -23 79 -58.5t54 -83t32.5 -89.5t17.5 -103.5t6 -98t1 -97.5q0 -76 -24 -154.5t-74 -141t-115 -75.5h-2q-1 -68 0 -131q0 -363 19 -572 q1 -14 -13 -17h-2q-13 0 -14 13q-16 164 -19 355zM51 754q80 24 132.5 127t52.5 213q0 48 -0.5 75t-3.5 77.5t-8.5 82.5t-17.5 76t-28.5 74.5t-42.5 60.5t-59 49q-1 -61 -10 -191.5t-9 -205.5q0 -61 -1 -133t-2.5 -162t-2.5 -143z" />
<glyph unicode="Q" horiz-adv-x="542" d="M18 1230v26q0 51 3 97q4 57 18 113.5t37 96t64 64t96 24.5q48 0 85 -18t60.5 -52.5t39 -72t23 -88.5t10 -90t3.5 -87q3 -176 29 -494.5t26 -490.5q0 -112 -16 -167t-64 -77q9 -12 68 -80q7 -7 4 -14.5t-10 -9.5h-4q-6 0 -11 4q-33 33 -78 88q-45 -10 -102 -10 t-100.5 19.5t-70 50t-44 77t-25 91t-9.5 103.5q-2 37 -2 68v35q2 43 3.5 98.5t1.5 83.5q-1 42 -6.5 141.5t-5.5 149.5q-6 3 -6 13q0 27 -3.5 81.5t-8 107t-5.5 119.5zM51 1356q-2 -34 -2 -79q0 -68 5 -161q9 -156 9 -182q9 -4 9 -12q0 -52 4.5 -157.5t5.5 -146.5v-27 q0 -37 -2 -95q-1 -50 -1 -93q0 -27 1 -51q1 -63 10 -121q16 -98 64.5 -152t144.5 -54q61 0 84 6q-59 77 -92 155q-4 8 1.5 15t14 7t12.5 -9q31 -73 95 -160q43 19 55 65t12 154q0 173 -25 491.5t-28 493.5q-1 57 -5 103.5t-16 100t-32 89.5t-55.5 60t-83.5 24 q-90 0 -132.5 -69.5t-52.5 -194.5z" />
<glyph unicode="R" horiz-adv-x="364" d="M47 227v1385q0 8 4 12q5 3 8 3q2 0 4 -1h3q133 -26 185 -109.5t52 -226.5q0 -49 -26.5 -136t-74.5 -171t-96 -106q12 -19 45 -67.5t41.5 -63t28 -53.5t24.5 -67t11 -73t6 -100q0 -11 -3.5 -69t-4.5 -111q0 -11 -1 -21q0 -43 4 -91q4 -59 21 -97t46 -41q9 -1 12 -9 q1 -3 1 -5q1 -5 -3 -9q-6 -7 -15 -6q-88 7 -96 190q-1 15 -1 34q0 47 4 117q5 97 5 118q0 54 -5.5 97.5t-11.5 71.5t-23.5 64t-28 53t-40 61t-44.5 68v-641q0 -41 3 -111t3 -108q0 -15 -15.5 -15t-15.5 15q0 38 -3 108t-3 111zM78 899h2q62 16 127 163t65 228q0 132 -43 204 t-151 99v-694z" />
<glyph unicode="S" horiz-adv-x="393" d="M27 330v4v147q0 15 15 15t15 -15v-145q7 -28 8.5 -76.5t4 -86t12.5 -75t38 -58t75 -20.5q63 0 89.5 47t28.5 134v2q-4 4 2 4v2q0 108 -0.5 153t-6 141t-16 154.5t-32.5 135.5t-55 141q-12 25 -44 86t-45.5 91t-33 81t-27.5 98.5t-8 100.5v18q0 31 0.5 48.5t3 50t9.5 52 t18.5 40.5t32 31.5t47.5 10.5q86 0 138 -58t52 -157q0 -15 -15.5 -15t-15.5 15q0 88 -44 136.5t-115 48.5q-17 0 -30.5 -7.5t-22 -18t-14 -28.5t-8.5 -32.5t-4.5 -37t-1 -36t0.5 -34.5v-27q0 -50 7 -95t28 -98t31.5 -78t45.5 -92t43 -82q33 -66 55 -142.5t33.5 -139.5 t17 -155t6.5 -145.5t1 -154.5v-47l-2 -2q0 -4 -4 -4q-15 -168 -145 -168q-45 0 -76 16.5t-45 42t-22.5 63t-9.5 72t-4.5 77.5t-10.5 71z" />
<glyph unicode="T" horiz-adv-x="442" d="M34 1619q0 15 15 15h180q6 4 11 4t10 -4h162q15 0 15 -15t-15 -15h-158q0 -94 -2 -275.5t-2 -263.5v-334v-43q0 -105 6 -338.5t6 -335.5q0 -15 -15.5 -15t-15.5 15q0 70 -2 157t-5.5 196.5t-4.5 167.5v8v53v92v43v334q0 82 2 263.5t2 275.5h-174q-15 0 -15 15z" />
<glyph unicode="U" horiz-adv-x="389" d="M49 822q0 196 2 436t2 370q0 15 15.5 15t15.5 -15q0 -138 -4 -408q-3 -236 -3 -430q1 -28 1 -55q0 -215 8 -407q1 -31 3 -51t6.5 -58.5t14 -64.5t23 -53.5t36 -41.5t50.5 -14q23 0 40.5 20.5t28 55.5t17.5 71.5t9.5 79.5t3.5 67.5t1 47.5v73q0 142 -5 376q-7 300 -7 405 v2v385q0 15 15.5 15t15.5 -15v-385q11 -91 15 -213q4 -109 4 -184q-1 -9 -1 -18q0 -80 -3.5 -238.5t-4.5 -202.5q0 -373 -129 -373q-32 0 -58 14.5t-42.5 36t-29 57.5t-19 65.5t-10.5 74.5t-4.5 71t-1.5 67.5t-1 52.5q-4 173 -4 369z" />
<glyph unicode="V" d="M23 1622q0 15 15 15t15 -15q0 -76 5.5 -147.5t17.5 -173.5t16 -146q9 -90 26.5 -293.5t33.5 -364t34 -296.5q8 202 53 602t52 612q1 37 18 109t17 110q0 15 15 15t15 -15q0 -39 -18 -111t-19 -108q-7 -209 -56.5 -672t-49.5 -723q0 -15 -14 -16h-2q-12 0 -15 14 q-25 153 -44.5 333t-43.5 452t-31 348q-5 51 -16.5 150t-17.5 172.5t-6 148.5z" />
<glyph unicode="W" horiz-adv-x="477" d="M23 1642q1 6 5 10q4 3 8 3t6 -1q8 -3 9 -12q16 -104 23 -224.5t10.5 -275.5t7.5 -227q2 -53 24 -346q21 -280 21 -430v-14q24 99 37 160t18 125q6 64 6 96v19q0 36 -2 107q-2 95 -1 163q0 33 -9 149q-7 91 -7 165q1 19 1 39q2 88 27 138q7 14 19 11.5t12 -17.5 q0 -156 29.5 -438t33.5 -338q7 -92 6 -136v-23q-1 -14 -1 -28q0 -25 3 -55q5 -46 27 -156q3 33 15.5 114.5t15.5 127.5q36 459 36 1286q0 15 15.5 15t15.5 -15q0 -788 -39 -1290q-3 -41 -18 -154.5t-15 -181.5q0 -15 -13 -17t-17 13q-38 112 -48 180q-7 50 -7 96q1 16 1 31 q1 17 0 39q0 57 -6 150q-7 91 -31.5 306t-31.5 333v-24q0 -59 7 -153q9 -116 9 -167q-1 -58 1 -156q1 -74 2 -113v-23q0 -38 -4.5 -109t-14.5 -119.5t-28.5 -120t-47.5 -154.5q-4 -13 -14 -13h-3q-14 2 -12 17q3 61 3 129q1 73 -3 153q-6 154 -21.5 347t-19.5 282 q-4 73 -7 225q-3 150 -10 272z" />
<glyph unicode="X" horiz-adv-x="442" d="M41 1628q0 7 6 12q7 5 14.5 2t8.5 -12q32 -247 151 -768q5 53 15.5 147t11.5 105q6 52 10.5 167.5t17 204.5t43.5 161q5 9 13 9h1q8 0 13 -7q6 -7 2 -15q-31 -70 -43.5 -155.5t-18.5 -204.5t-10 -164q-7 -58 -17.5 -181t-14.5 -161q47 -207 57 -258q6 -28 39 -215.5 t61 -271.5q1 -3 1 -6q0 -5 -4 -9q-5 -5 -11 -5q-2 1 -3 1q-8 2 -11 10q-28 85 -62 274.5t-39 213.5q-21 95 -39 172q-48 -456 -135 -662q-4 -8 -12 -8q-1 0 -2 -1q-8 1 -12 7q-6 6 -2 15q55 128 86 308t57 433q-172 726 -172 862z" />
<glyph unicode="Y" horiz-adv-x="364" d="M41 1624q-1 3 -1 5q0 6 4 9q6 5 12 5q2 0 4 -1q8 -1 10 -10q81 -327 108 -579q11 42 39 136.5t42.5 148t28 134t13.5 150.5q0 15 15.5 15t15.5 -15q0 -101 -24 -210t-63 -239.5t-55 -203.5v-955q0 -15 -15 -15t-15 15v938q-2 2 -2 6q-21 273 -117 666z" />
<glyph unicode="Z" horiz-adv-x="436" d="M34 1629.5q0 15.5 15 15.5h238l2 -3q23 -4 86 -4q6 0 10.5 -5t3.5 -11q-2 -65 -31 -180.5t-34 -147.5q-11 -63 -62.5 -404t-91.5 -534q-7 -35 -43.5 -153t-38.5 -185q51 0 149 3.5t156 3.5q15 0 15 -16.5t-15 -16.5q-60 0 -162.5 -3t-158.5 -3q-6 0 -10.5 5t-4.5 11 q0 74 39.5 204.5t44.5 153.5q39 194 90.5 531t63.5 407q6 41 32.5 146t30.5 164q-43 0 -73 6h-236q-15 0 -15 15.5z" />
<glyph unicode="a" d="M23 31q0 75 6 148t17.5 172.5t16.5 148.5q2 26 9 83.5t10.5 102.5t3.5 86v2q-9 0 -13 7.5t0 15t13 6.5h4q51 581 92 831q3 14 15 14h2q14 -1 14 -16q0 -135 11 -296t20.5 -255t31.5 -286q6 -5 7.5 -13.5t-4.5 -13.5q33 -319 40 -530q1 -37 19 -109.5t18 -110.5 q0 -15 -15 -15t-15 15q0 38 -17 110.5t-18 109.5q-6 166 -43 528l-131 6q-3 -42 -7 -88.5t-9.5 -101.5t-8.5 -84q-4 -46 -16 -147.5t-17.5 -173t-5.5 -146.5q0 -15 -15 -15t-15 15zM121 803l123 -6l-14 126t-14.5 138t-11.5 122.5t-11.5 139.5t-6.5 129q-27 -195 -65 -649z " />
<glyph unicode="b" horiz-adv-x="395" d="M40 1651.5q0 8.5 6 14.5q3 3 8 3q3 0 7 -2q112 -58 171 -157t59 -224q0 -66 -37 -154.5t-92 -113.5q110 -107 154 -239.5t44 -307.5q0 -61 -15 -133t-42.5 -143t-74.5 -124t-103 -67v-2q0 -15 -15.5 -15t-15.5 15q0 126 7.5 373.5t7.5 449t-15 369.5q-5 55 -15 140 t-16 154.5t-6 145.5l-8 4q-9 5 -9 13.5zM88 1616q1 -72 6 -136.5t15 -149t14 -132.5q8 -107 10 -158q31 6 61.5 49.5t48 98.5t17.5 98q0 104 -44 189.5t-128 140.5zM125 37q61 19 109.5 95.5t72 167t23.5 171.5q0 171 -44 299t-151 229q3 -78 3 -184q0 -141 -5 -337 q-8 -340 -8 -441z" />
<glyph unicode="c" horiz-adv-x="483" d="M35 365q0 127 9 364t9 401q0 13 -0.5 50t-0.5 61t1.5 65t4.5 69.5t9.5 66t16.5 64t25 54t35 44t47.5 27.5t60.5 11q79 0 130.5 -57t51.5 -145q0 -15 -15.5 -15t-15.5 15q0 77 -43 124.5t-108 47.5q-36 0 -64.5 -16.5t-46 -40t-30 -62.5t-18 -72.5t-8.5 -82t-3 -78 t1 -73.5t1 -57q0 -164 -9 -401t-9 -364q0 -67 8 -122.5t27 -106t55.5 -79t87.5 -28.5q182 0 182 305q0 15 15.5 15t15.5 -15q0 -338 -213 -338q-63 0 -106.5 34.5t-64.5 93t-29.5 116.5t-8.5 125z" />
<glyph unicode="d" d="M36 1650q5 6 10 6q4 0 9 -3q46 -34 85 -81t66.5 -94.5t49.5 -114t36 -118t23.5 -129.5t14.5 -126.5t7.5 -131t2.5 -120.5v-116v-36q0 -74 -12.5 -161.5t-38 -178t-71.5 -162t-105 -96.5q-4 -2 -7 -2t-6 2q-3 -1 -6 -1q-4 0 -8 2q-6 4 -6 13q0 133 -1 251.5t-3.5 243.5 t-4.5 207.5t-7 223.5t-7.5 207t-9.5 243.5t-10 251.5q-5 5 -5 10t4 10zM68 1604q17 -417 23 -572t12.5 -437.5t5.5 -574.5q65 33 112.5 137.5t67.5 216.5t20 212q0 290 -11 417q-38 435 -230 601z" />
<glyph unicode="e" horiz-adv-x="352" d="M32 1226v23q0 83 4 187q4 118 3 174q-6 5 -5 13t7 13q5 6 13 7h3q7 0 11 -5h118l2 -2q43 -2 117 -2q15 0 15 -15t-15 -15q-91 0 -121 4h-114q0 -60 -4 -174t-4 -205.5t8 -167.5q8 -63 10 -92h160q15 0 15 -15.5t-15 -15.5h-158q8 -175 8 -279v-23q-1 -108 -6.5 -307 t-5.5 -304h209q15 0 15 -16.5t-15 -16.5h-226q-6 0 -10 5t-4 11q0 108 7 330q6 183 6 333v63q-2 173 -19 323q-9 77 -9 169z" />
<glyph unicode="f" horiz-adv-x="311" d="M35 8q0 261 3.5 643.5t4.5 485.5q-7 10 0 20q1 75 2 232t2 239q-9 6 -6.5 17.5t14.5 11.5h226q15 0 15 -15.5t-15 -15.5h-205q0 -324 -2 -465q21 -1 61 -7.5t68 -6.5q15 0 15 -15.5t-15 -15.5q-28 0 -68 6.5t-61 7.5q-8 -730 -8 -1122q0 -15 -15.5 -15t-15.5 15z" />
<glyph unicode="g" horiz-adv-x="440" d="M36 460q2 63 6.5 155t4.5 126v2q0 5 2 5q0 87 3 269.5t3 264.5q0 19 -2.5 57.5t-2.5 68.5q-1 9 -1 20q0 22 1 47q1 38 10 66t24.5 53.5t44 39t68.5 13.5q63 0 119.5 -42.5t56.5 -107.5q0 -15 -15.5 -15t-15.5 15q0 49 -45.5 84t-99.5 35q-44 0 -71.5 -22.5t-35 -56 t-10.5 -71.5q-2 -18 -2 -35q0 -19 2 -36q0 -5 3 -48.5t3 -64.5q0 -297 -6 -567l-2 -2q0 -4 -2 -4q0 -26 -4.5 -122t-4.5 -142t5 -144q20 -272 172 -272q29 0 52 10t37.5 27.5t25 41t15 49.5t7.5 53.5t2 53.5t0 49v13v10q0 78 -5 225t-5 230q-74 0 -103 -7q-9 -3 -15 3.5 t-4 15t11 10.5q14 4 32 6t29 2.5t34 0t30 -0.5q6 0 11 -5t5 -11q0 -86 5.5 -237.5t5.5 -231.5v-15q0 -37 -0.5 -57.5t-3.5 -60t-9 -63t-18.5 -54.5t-30 -48t-45.5 -29.5t-63 -12.5q-180 0 -203 301q-5 79 -5 136v27z" />
<glyph unicode="h" horiz-adv-x="436" d="M34 875.5q0 15.5 15 15.5h2q-4 442 -4 731q0 15 15.5 15t15.5 -15q0 -289 4 -731h104l2 -2q143 -10 179 -10q-7 401 -7 755q0 15 15.5 15t15.5 -15q0 -454 8 -762q7 -10 0 -20q11 -709 11 -844q0 -15 -15.5 -15t-15.5 15q0 195 -10 840q-114 0 -185 12h-102 q6 -786 6 -852q0 -15 -15.5 -15t-15.5 15q0 66 -6 852h-2q-15 0 -15 15.5z" />
<glyph unicode="i" horiz-adv-x="174" d="M63 1634q0 15 14.5 15t14.5 -15q8 -185 12.5 -340.5t6.5 -341.5t2 -274q0 -44 1 -130q0 -86 -1 -212v-340q0 -15 -15.5 -15t-15.5 15q0 130 1 420q1 193 1 313v102q0 126 -5.5 351t-15.5 452z" />
<glyph unicode="j" horiz-adv-x="399" d="M39 256q0 15 15.5 15t15.5 -15q0 -94 33.5 -167t93.5 -73q27 0 48.5 9.5t34.5 22t22.5 36t14 40.5t7 47.5t2.5 44v42.5v16v41q0 217 -9.5 651t-9.5 656q0 15 15.5 15t15.5 -15q0 -222 9 -656t9 -651v-41v-12q0 -31 -0.5 -51.5t-4 -52.5t-9 -53.5t-17.5 -46.5t-28.5 -39.5 t-42 -24.5t-57.5 -10q-42 0 -74.5 27.5t-49.5 70.5t-25.5 87t-8.5 87z" />
<glyph unicode="k" horiz-adv-x="335" d="M38 153q-1 27 -1 59q-1 52 1 114q2 100 3 145v1151q0 15 15.5 15t15.5 -15v-733q11 33 38 93.5t37 88.5q65 183 101 565q0 9 8 12q3 1 6 1q4 0 8 -3q6 -5 6 -14q-38 -398 -100 -573q-10 -28 -37 -86t-42 -104t-15 -91q0 -52 16.5 -105.5t52.5 -130t44 -96.5 q118 -302 118 -434q-1 -6 -5 -10q-6 -5 -13.5 -2t-9.5 12q-31 203 -119 422q-9 24 -45 101.5t-49 121.5v-186q0 -49 -4 -145q-3 -74 -2 -135v-34q1 -74 10 -147q1 -9 -6 -14q-4 -3 -9 -3q-3 0 -5 1q-8 3 -9 12q-7 74 -9 147z" />
<glyph unicode="l" horiz-adv-x="411" d="M47 1618q0 15 15.5 15t15.5 -15q0 -310 2 -793t2 -790h283q15 0 15 -15.5t-15 -15.5h-297q-15 0 -15 14q0 313 -3 800.5t-3 799.5z" />
<glyph unicode="m" horiz-adv-x="462" d="M39 18q0 470 31 1129q3 58 19.5 237t16.5 271q0 15 12 17q2 0 3 1q9 0 14 -12q33 -87 45 -201q9 -88 9 -165q-1 -23 -1 -45q-2 -51 -1 -109q0 -50 1 -106q3 -120 19 -206q16 185 98 461q15 51 15 155v7q0 5 -1 9q0 102 11 157q2 10 8.5 13t12.5 -1.5t7 -15.5 q2 -58 18 -178t19 -168q39 -568 39 -1256q0 -15 -15.5 -15t-15.5 15q0 693 -36 1256q-5 64 -19 157q0 -97 -14 -143q-101 -344 -101 -555q0 -15 -12.5 -17t-17.5 13q-31 89 -41 203q-7 80 -8 151q0 31 2 59q2 50 2 106q0 50 -2 106q-4 118 -23 208q-4 -63 -18 -202t-17 -207 q-28 -529 -28 -1129q0 -15 -15.5 -15t-15.5 15z" />
<glyph unicode="n" horiz-adv-x="395" d="M49 684v12v58l2 26q12 148 13.5 426t11.5 410q2 15 13.5 15t14.5 -15q24 -141 51.5 -421t49.5 -413q15 -94 56.5 -265t57.5 -269q2 -11 6.5 -42t6.5 -48q1 44 3 169.5t2.5 187.5t0.5 162.5t-3 184.5t-9 164q-2 32 -2 73q0 50 3 114q6 117 6 220.5t-20 180.5q-3 9 3 15 q4 4 10 5q2 0 4 -1q8 -2 12 -11q21 -79 21 -180q1 -100 -7 -224q-4 -65 -4 -117q0 -40 2 -71q12 -147 14 -310q1 -54 1 -115q0 -123 -3 -271q-4 -222 -4 -316q0 -15 -12 -17.5t-18 11.5q-13 33 -20 71t-12.5 88.5t-8.5 72.5q-15 103 -57.5 275t-57.5 259q-21 125 -44.5 365 t-35.5 332q-14 -249 -14 -650v-10q2 -20 2 -53v-119v-149q0 -46 -4 -156q-2 -70 -2 -128q0 -32 1 -62q2 -80 13 -156q2 -9 -4 -14q-4 -3 -9 -3q-3 0 -6 1q-8 3 -10 12q-11 74 -13 154q-1 36 -2 80q0 52 2 116q3 116 3 156v149v37q-4 0 -4 4z" />
<glyph unicode="o" horiz-adv-x="512" d="M48 1205q-1 18 -1 39q0 28 1 60q2 58 7.5 103.5t19.5 93t35 79t56 51.5t80 20q49 0 86 -29t57.5 -71t33 -98t16 -100t3.5 -87q0 -80 11 -218t12 -202q2 -100 2 -322v-24q0 -23 3.5 -71t6 -89.5t2.5 -93.5t-9.5 -92.5t-27.5 -76.5t-53 -55.5t-84 -19.5q-30 0 -55 6.5 t-42 15.5t-31.5 27t-22.5 32t-16 40t-12 42t-10 47t-10 46q-25 103 -37.5 254.5t-14 251t-1.5 270.5v4v2q0 22 -1.5 72.5t-3.5 92.5zM78 1286v-41v-53q2 -40 4 -86t2 -66l-2 -2q0 -1 1 -2t1 -2v-175t3.5 -162.5t10.5 -189t22.5 -160.5t37.5 -171q12 -40 19.5 -60t23.5 -42.5 t41 -31.5t63 -9q73 1 108 57q33 53 33 119v7q-2 70 -3 134q-1 17 -1 25q-6 3 -6 12v59v54v24q0 35 0.5 102.5t0.5 121.5t-1 98q-1 64 -12.5 202.5t-11.5 217.5q0 49 -6 99.5t-21.5 113t-51.5 102t-87 39.5q-40 0 -70 -19.5t-48 -50.5t-29.5 -76.5t-15.5 -89.5t-5 -98z" />
<glyph unicode="p" horiz-adv-x="292" d="M22 371q-1 82 -1 179q0 130 2 287q4 275 4 355q0 73 9 208.5t9 205.5q-7 6 -5.5 14.5t9.5 11.5q5 4 11 4h5q10 -2 11 -12q45 -23 79 -58.5t54 -83t32.5 -89.5t17.5 -103.5t6 -98t1 -97.5q0 -76 -24 -154.5t-74 -141t-115 -75.5h-2q-1 -68 -1 -131q0 -363 20 -572 q1 -14 -13 -17h-2q-13 0 -14 13q-16 164 -19 355zM51 754q80 24 132.5 127t52.5 213q0 48 -0.5 75t-3.5 77.5t-8.5 82.5t-17.5 76t-28.5 74.5t-42.5 60.5t-59 49q-1 -61 -10 -191.5t-9 -205.5q0 -61 -1 -133t-2.5 -162t-2.5 -143z" />
<glyph unicode="q" horiz-adv-x="542" d="M18 1230v26q0 51 3 97q4 57 18 113.5t37 96t64 64t96 24.5q48 0 85 -18t60.5 -52.5t39 -72t23 -88.5t10 -90t3.5 -87q3 -176 29 -494.5t26 -490.5q0 -112 -16 -167t-64 -77q9 -12 68 -80q7 -7 4 -14.5t-10 -9.5h-4q-6 0 -11 4q-33 33 -78 88q-45 -10 -102 -10 t-100.5 19.5t-70 50t-44 77t-25 91t-9.5 103.5q-2 37 -2 68v35q2 43 3.5 98.5t1.5 83.5q-1 42 -6.5 141.5t-5.5 149.5q-6 3 -6 13q0 27 -3.5 81.5t-8 107t-5.5 119.5zM51 1356q-2 -34 -2 -79q0 -68 5 -161q9 -156 9 -182q9 -4 9 -12q0 -52 4.5 -157.5t5.5 -146.5v-27 q0 -37 -2 -95q-1 -50 -1 -93q0 -27 1 -51q1 -63 10 -121q16 -98 64.5 -152t144.5 -54q61 0 84 6q-59 77 -92 155q-4 8 1.5 15t14 7t12.5 -9q31 -73 95 -160q43 19 55 65t12 154q0 173 -25 491.5t-28 493.5q-1 57 -5 103.5t-16 100t-32 89.5t-55.5 60t-83.5 24 q-90 0 -132.5 -69.5t-52.5 -194.5z" />
<glyph unicode="r" horiz-adv-x="364" d="M47 227v1385q0 8 4 12q5 3 8 3q2 0 4 -1h3q133 -26 185 -109.5t52 -226.5q0 -49 -26.5 -136t-74.5 -171t-96 -106q12 -19 45 -67.5t41.5 -63t28 -53.5t24.5 -67t11 -73t6 -100q0 -11 -3.5 -69t-4.5 -111q0 -11 -1 -21q0 -43 4 -91q4 -59 21 -97t46 -41q9 -1 12 -9 q1 -3 1 -5q1 -5 -3 -9q-6 -7 -15 -6q-88 7 -96 190q-1 15 -1 34q0 47 4 117q5 97 5 118q0 54 -5.5 97.5t-11.5 71.5t-23.5 64t-28 53t-40 61t-44.5 68v-641q0 -41 3 -111t3 -108q0 -15 -15.5 -15t-15.5 15q0 38 -3 108t-3 111zM78 899h2q62 16 127 163t65 228q0 132 -43 204 t-151 99v-694z" />
<glyph unicode="s" horiz-adv-x="393" d="M27 330v4v147q0 15 15 15t15 -15v-145q7 -28 8.5 -76.5t4 -86t12.5 -75t38 -58t75 -20.5q63 0 89.5 47t28.5 134v2q-4 4 2 4v2q0 108 -0.5 153t-6 141t-16 154.5t-32.5 135.5t-55 141q-12 25 -44 86t-45.5 91t-33 81t-27.5 98.5t-8 100.5v18q0 31 0.5 48.5t3 50t9.5 52 t18.5 40.5t32 31.5t47.5 10.5q86 0 138 -58t52 -157q0 -15 -15.5 -15t-15.5 15q0 88 -44 136.5t-115 48.5q-17 0 -30.5 -7.5t-22 -18t-14 -28.5t-8.5 -32.5t-4.5 -37t-1 -36t0.5 -34.5v-27q0 -50 7 -95t28 -98t31.5 -78t45.5 -92t43 -82q33 -66 55 -142.5t33.5 -139.5 t17 -155t6.5 -145.5t1 -154.5v-47l-2 -2q0 -4 -4 -4q-15 -168 -145 -168q-45 0 -76 16.5t-45 42t-22.5 63t-9.5 72t-4.5 77.5t-10.5 71z" />
<glyph unicode="t" horiz-adv-x="442" d="M34 1619q0 15 15 15h180q6 4 11 4t10 -4h162q15 0 15 -15t-15 -15h-158q0 -94 -2 -275.5t-2 -263.5v-334v-43q0 -105 6 -338.5t6 -335.5q0 -15 -15.5 -15t-15.5 15q0 70 -2 157t-5.5 196.5t-4.5 167.5v8v53v92v43v334q0 82 2 263.5t2 275.5h-174q-15 0 -15 15z" />
<glyph unicode="u" horiz-adv-x="389" d="M49 822q0 196 2 436t2 370q0 15 15.5 15t15.5 -15q0 -138 -4 -408q-3 -236 -3 -430q1 -28 1 -55q0 -215 8 -407q1 -31 3 -51t6.5 -58.5t14 -64.5t23 -53.5t36 -41.5t50.5 -14q23 0 40.5 20.5t28 55.5t17.5 71.5t9.5 79.5t3.5 67.5t1 47.5v73q0 142 -5 376q-7 300 -7 405 v2v385q0 15 15.5 15t15.5 -15v-385q11 -91 15 -213q4 -109 4 -184q-1 -9 -1 -18q0 -80 -3.5 -238.5t-4.5 -202.5q0 -373 -129 -373q-32 0 -58 14.5t-42.5 36t-29 57.5t-19 65.5t-10.5 74.5t-4.5 71t-1.5 67.5t-1 52.5q-4 173 -4 369z" />
<glyph unicode="v" d="M23 1622q0 15 15 15t15 -15q0 -76 5.5 -147.5t17.5 -173.5t16 -146q9 -90 26.5 -293.5t33.5 -364t34 -296.5q8 202 53 602t52 612q1 37 18 109t17 110q0 15 15 15t15 -15q0 -39 -18 -111t-19 -108q-7 -209 -56.5 -672t-49.5 -723q0 -15 -14 -16h-2q-12 0 -15 14 q-25 153 -44.5 333t-43.5 452t-31 348q-5 51 -16.5 150t-17.5 172.5t-6 148.5z" />
<glyph unicode="w" horiz-adv-x="477" d="M23 1642q1 6 5 10q4 3 8 3t6 -1q8 -3 9 -12q16 -104 23 -224.5t10.5 -275.5t7.5 -227q2 -53 24 -346q21 -280 21 -430v-14q24 99 37 160t18 125q6 64 6 96v19q0 36 -2 107q-2 95 -1 163q0 33 -9 149q-7 91 -7 165q1 19 1 39q2 88 27 138q7 14 19 11.5t12 -17.5 q0 -156 29.5 -438t33.5 -338q7 -92 6 -136v-23q-1 -14 -1 -28q0 -25 3 -55q5 -46 27 -156q3 33 15.5 114.5t15.5 127.5q36 459 36 1286q0 15 15.5 15t15.5 -15q0 -788 -39 -1290q-3 -41 -18 -154.5t-15 -181.5q0 -15 -13 -17t-17 13q-38 112 -48 180q-7 50 -7 96q1 16 1 31 q1 17 0 39q0 57 -6 150q-7 91 -31.5 306t-31.5 333v-24q0 -59 7 -153q9 -116 9 -167q-1 -58 1 -156q1 -74 2 -113v-23q0 -38 -4.5 -109t-14.5 -119.5t-28.5 -120t-47.5 -154.5q-4 -13 -14 -13h-3q-14 2 -12 17q3 61 3 129q1 73 -3 153q-6 154 -21.5 347t-19.5 282 q-4 73 -7 225q-3 150 -10 272z" />
<glyph unicode="x" horiz-adv-x="442" d="M41 1628q0 7 6 12q7 5 14.5 2t8.5 -12q32 -247 151 -768q5 53 15.5 147t11.5 105q6 52 10.5 167.5t17 204.5t43.5 161q5 9 13 9h1q8 0 13 -7q6 -7 2 -15q-31 -70 -43.5 -155.5t-18.5 -204.5t-10 -164q-7 -58 -17.5 -181t-14.5 -161q47 -207 57 -258q6 -28 39 -215.5 t61 -271.5q1 -3 1 -6q0 -5 -4 -9q-5 -5 -11 -5q-2 1 -3 1q-8 2 -11 10q-28 85 -62 274.5t-39 213.5q-21 95 -39 172q-48 -456 -135 -662q-4 -8 -12 -8q-1 0 -2 -1q-8 1 -12 7q-6 6 -2 15q55 128 86 308t57 433q-172 726 -172 862z" />
<glyph unicode="y" horiz-adv-x="364" d="M41 1624q-1 3 -1 5q0 6 4 9q6 5 12 5q2 0 4 -1q8 -1 10 -10q81 -327 108 -579q11 42 39 136.5t42.5 148t28 134t13.5 150.5q0 15 15.5 15t15.5 -15q0 -101 -24 -210t-63 -239.5t-55 -203.5v-955q0 -15 -15 -15t-15 15v938q-2 2 -2 6q-21 273 -117 666z" />
<glyph unicode="z" horiz-adv-x="436" d="M34 1629.5q0 15.5 15 15.5h238l2 -3q23 -4 86 -4q6 0 10.5 -5t3.5 -11q-2 -65 -31 -180.5t-34 -147.5q-11 -63 -62.5 -404t-91.5 -534q-7 -35 -43.5 -153t-38.5 -185q51 0 149 3.5t156 3.5q15 0 15 -16.5t-15 -16.5q-60 0 -162.5 -3t-158.5 -3q-6 0 -10.5 5t-4.5 11 q0 74 39.5 204.5t44.5 153.5q39 194 90.5 531t63.5 407q6 41 32.5 146t30.5 164q-43 0 -73 6h-236q-15 0 -15 15.5z" />
<glyph unicode="&#x2000;" horiz-adv-x="1046" />
<glyph unicode="&#x2001;" horiz-adv-x="2092" />
<glyph unicode="&#x2002;" horiz-adv-x="1046" />
<glyph unicode="&#x2003;" horiz-adv-x="2092" />
<glyph unicode="&#x2004;" horiz-adv-x="697" />
<glyph unicode="&#x2005;" horiz-adv-x="523" />
<glyph unicode="&#x2006;" horiz-adv-x="348" />
<glyph unicode="&#x2007;" horiz-adv-x="348" />
<glyph unicode="&#x2008;" horiz-adv-x="261" />
<glyph unicode="&#x2009;" horiz-adv-x="418" />
<glyph unicode="&#x200a;" horiz-adv-x="116" />
<glyph unicode="&#x202f;" horiz-adv-x="418" />
<glyph unicode="&#x205f;" horiz-adv-x="523" />
<glyph unicode="&#x20ac;" horiz-adv-x="483" d="M-27 724q0 14 13 15l57 6q4 74 4 113h-39q-15 0 -15 15.5t15 15.5h41q4 144 4 241q0 13 -0.5 50t-0.5 61t1.5 65t4.5 69.5t9.5 66t16.5 64t25 54t35 44t47.5 27.5t60.5 11q50 0 93.5 -57.5t66 -132t22.5 -135.5q0 -15 -15.5 -15t-15.5 15q0 54 -19 122t-55.5 120.5 t-76.5 52.5q-36 0 -64.5 -16.5t-46 -40t-30 -62.5t-18 -72.5t-8.5 -82t-3 -78t1 -73.5t1 -57q0 -97 -4 -241h319q15 0 15 -15.5t-15 -15.5h-321q0 -40 -4 -110q107 8 243 8l5 -2h2q22 0 71 -15q9 -3 11 -11t-4 -14t-15 -3q-26 7 -41 9.5t-21.5 3t-28 0t-38.5 -0.5h-4h-2 q-90 0 -178 -6q-8 -230 -8 -352q0 -67 8 -122.5t27 -106t55.5 -79t87.5 -28.5q44 0 78.5 36t53.5 88t31 120t15.5 121.5t3.5 103.5q0 15 15.5 15t15.5 -15q0 -50 -4 -104.5t-17.5 -129t-35 -131t-62.5 -97t-94 -40.5q-63 0 -106.5 34.5t-64.5 93t-29.5 116.5t-8.5 125 q0 120 8 350l-53 -4q-15 -1 -17 13z" />
<glyph unicode="&#x25fc;" horiz-adv-x="1658" d="M0 0v1659h1659v-1659h-1659z" />
</font>
</defs>
</svg>
